<?xml version="1.0" encoding="UTF-8" standalone="no"?>
<!-- Created with Inkscape (http://www.inkscape.org/) -->

<svg
   xmlns:dc="http://purl.org/dc/elements/1.1/"
   xmlns:cc="http://creativecommons.org/ns#"
   xmlns:rdf="http://www.w3.org/1999/02/22-rdf-syntax-ns#"
   xmlns:svg="http://www.w3.org/2000/svg"
   xmlns="http://www.w3.org/2000/svg"
   xmlns:sodipodi="http://sodipodi.sourceforge.net/DTD/sodipodi-0.dtd"
   xmlns:inkscape="http://www.inkscape.org/namespaces/inkscape"
   width="210mm"
   height="297mm"
   id="svg2"
   version="1.1"
   inkscape:version="0.48.0 r9654"
   sodipodi:docname="numbers.svg">
  <defs
     id="defs4" />
  <sodipodi:namedview
     id="base"
     pagecolor="#ffffff"
     bordercolor="#666666"
     borderopacity="1.0"
     inkscape:pageopacity="0.0"
     inkscape:pageshadow="2"
     inkscape:zoom="1.8035616"
     inkscape:cx="407.96948"
     inkscape:cy="754.97595"
     inkscape:document-units="px"
     inkscape:current-layer="layer1"
     showgrid="false"
     inkscape:window-width="1920"
     inkscape:window-height="1138"
     inkscape:window-x="1272"
     inkscape:window-y="-8"
     inkscape:window-maximized="1" />
  <metadata
     id="metadata7">
    <rdf:RDF>
      <cc:Work
         rdf:about="">
        <dc:format>image/svg+xml</dc:format>
        <dc:type
           rdf:resource="http://purl.org/dc/dcmitype/StillImage" />
        <dc:title></dc:title>
      </cc:Work>
    </rdf:RDF>
  </metadata>
  <g
     inkscape:label="Ebene 1"
     inkscape:groupmode="layer"
     id="layer1">
    <path
       style="fill:#000000"
       d="m 219.71987,257.58758 c -6.7419,-1.04195 -13.41051,-4.30571 -16.29805,-7.97663 -3.03381,-3.85687 -2.97698,-8.93145 0.13782,-12.30451 3.11032,-3.36822 8.66504,-3.44824 12.3891,-0.17847 2.66053,2.33597 3.03766,4.85289 1.57446,10.50764 -0.62588,2.4188 -0.95267,4.59408 -0.7262,4.83395 1.00288,1.06223 7.5223,1.16186 10.9557,0.16742 6.661,-1.92927 10.22408,-7.5437 10.21778,-16.10036 -0.004,-5.39352 -0.73223,-8.22814 -2.7212,-10.5919 -2.30064,-2.73416 -3.53751,-3.17314 -9.8826,-3.50747 l -5.86375,-0.30896 0,-2.93188 0,-2.93188 4.691,-0.32134 c 5.2967,-0.36284 6.67164,-0.93789 8.71421,-3.64456 1.9325,-2.56082 2.71293,-5.72323 2.71684,-11.00901 0.002,-3.43245 -0.29155,-4.99713 -1.31608,-7.00218 -2.10637,-4.12226 -3.77205,-4.99617 -9.52273,-4.99617 -2.69078,0 -5.07774,0.18541 -5.30435,0.41202 -0.22661,0.22661 0.0478,2.28826 0.60976,4.58144 0.59721,2.43698 0.88799,5.16678 0.69982,6.56973 -0.87061,6.49088 -10.41377,9.05196 -14.70897,3.94742 -3.05776,-3.63395 -2.72921,-8.41492 0.85838,-12.49063 4.333,-4.92255 12.97195,-7.98381 22.5305,-7.98381 12.3411,0 21.78024,4.86232 24.00908,12.36764 1.12918,3.80238 1.13467,4.82653 0.0455,8.4941 -1.594,5.36759 -6.29898,9.48983 -13.35325,11.69938 -1.85441,0.58085 -3.37166,1.21817 -3.37166,1.41627 0,0.19811 1.70004,0.6514 3.77787,1.00731 7.25382,1.24253 12.36998,4.54419 15.14523,9.77381 1.96991,3.71206 1.83448,10.75574 -0.28458,14.80132 -1.81347,3.46214 -6.00052,7.43959 -10.28645,9.7715 -5.92707,3.22484 -17.96049,5.08371 -25.43319,3.92881 z m 78.45508,0.21187 c -0.215,-0.215 -0.39092,-4.56884 -0.39092,-9.67519 l 0,-9.28428 -16.41851,0 -16.4185,0 0.0258,-4.54441 0.0259,-4.5444 16.98514,-21.38474 c 9.34183,-11.76161 17.50839,-21.98653 18.14791,-22.72205 1.0845,-1.2473 1.61682,-1.3373 7.90995,-1.3373 l 6.74719,0 0,21.98907 0,21.98908 5.27738,0 5.27737,0 0,5.27738 0,5.27737 -5.27737,0 -5.27738,0 0,9.6752 0,9.67519 -8.11153,0 c -4.46134,0 -8.28744,-0.17591 -8.50244,-0.39092 z m -0.39092,-45.17044 c 0,-8.94473 -0.21927,-15.41743 -0.51151,-15.09917 -0.95089,1.03556 -23.28479,29.28334 -23.73699,30.02242 -0.35327,0.57737 2.17296,0.73297 11.90001,0.73297 l 12.34849,0 0,-15.65622 z m 52.48059,44.96725 c -13.98719,-1.98774 -22.61508,-12.45788 -16.37598,-19.87262 3.08698,-3.66868 9.45781,-3.8668 12.92273,-0.40187 2.49119,2.49119 2.93793,5.08565 1.68805,9.80341 -1.45386,5.48769 -1.48407,5.3647 1.46492,5.96378 4.55959,0.92626 8.47293,-0.34917 11.98464,-3.90602 4.14343,-4.19669 5.32053,-7.65248 5.32053,-15.62033 0,-5.73254 -0.12023,-6.374 -1.7441,-9.30593 -2.91855,-5.26944 -7.15956,-7.50494 -13.19888,-6.95731 -3.85786,0.34982 -6.19573,1.42503 -9.40735,4.32654 -1.92973,1.74338 -2.57179,2.00834 -4.06961,1.67936 -2.26584,-0.49766 -2.28012,0.12185 0.47306,-20.52737 l 2.18909,-16.41851 21.23475,-0.15391 21.23474,-0.1539 0,6.75063 0,6.75063 -19.35039,0 c -10.64271,0 -19.36082,0.066 -19.37357,0.14659 -0.81218,5.1352 -2.00761,16.27192 -1.74666,16.27192 0.1994,0 0.61352,-0.25098 0.92027,-0.55773 1.33547,-1.33547 8.9276,-3.61871 13.10357,-3.94074 11.80371,-0.91023 22.24503,3.88524 26.46349,12.15411 2.86091,5.60783 2.69471,13.97466 -0.39883,20.07947 -5.00415,9.87524 -19.39348,15.87098 -33.33447,13.8898 z m 120.42203,-0.43205 c 0.30225,-0.56439 7.52342,-13.16412 16.04706,-27.99942 8.52364,-14.8353 15.82142,-27.57863 16.21729,-28.31852 l 0.71977,-1.34526 -16.6999,0.17251 -16.6999,0.1725 -1.53206,1.44019 c -0.92121,0.86596 -2.01452,3.02857 -2.7421,5.42397 -1.13231,3.72789 -1.31936,3.98379 -2.91205,3.98379 l -1.70201,0 0,-12.31388 0,-12.31388 26.44116,0 26.44116,0 -0.20087,3.07847 c -0.18104,2.77473 -1.99114,6.33277 -18.34603,36.06208 l -18.14516,32.98361 -3.71795,0 c -3.35933,0 -3.66494,-0.099 -3.16841,-1.02616 z m 126.86778,-1.32355 c -0.66537,-2.62135 -1.14413,-2.26568 4.73725,-3.51929 10.42698,-2.2225 18.94971,-10.65151 21.76835,-21.52898 1.42349,-5.49345 1.33506,-5.63809 -2.05266,-3.3583 -4.07894,2.74492 -6.89155,3.45624 -13.7376,3.47433 -4.77521,0.0126 -6.36692,-0.21716 -8.57422,-1.23778 -3.2048,-1.48185 -7.20248,-4.95734 -9.00906,-7.83228 -2.90074,-4.61616 -4.21498,-11.59309 -3.2187,-17.08723 2.21097,-12.19281 13.54148,-20.4194 28.13167,-20.4252 13.57734,-0.005 23.94464,7.72355 27.29378,20.34784 1.31471,4.95582 1.18588,15.15729 -0.26241,20.77873 -4.15564,16.12947 -18.0267,27.5585 -38.65063,31.8461 -5.79039,1.20378 -5.74769,1.21347 -6.42577,-1.45794 z m 22.90145,-31.88103 c 1.03782,-0.44404 2.65651,-1.62582 3.59718,-2.62619 1.6928,-1.80032 1.70998,-1.88914 1.68794,-8.72125 -0.0334,-10.44038 -1.73755,-17.60438 -5.03937,-21.18947 -3.96578,-4.30589 -9.72779,-3.01259 -12.70986,2.85274 -3.41728,6.72129 -3.10961,20.13805 0.59933,26.13929 2.48834,4.02618 7.34711,5.47786 11.86478,3.54488 z M 41.538013,240.8181 c -12.191267,-2.34986 -20.569539,-9.90123 -23.155658,-20.87026 -3.888986,-16.49516 5.356921,-31.31045 21.68972,-34.75479 15.009565,-3.16529 29.969607,2.65584 35.643014,13.86913 1.740436,3.43991 3.32464,9.94743 3.340766,13.723 0.05301,12.41346 -7.376435,22.74091 -19.283597,26.80557 -3.243282,1.10714 -14.816463,1.88613 -18.234245,1.22735 z m 9.499659,-4.34646 c 2.796465,-0.77668 5.84781,-4.3243 7.169344,-8.33539 2.501821,-7.59346 2.493315,-23.03115 -0.01696,-30.77994 -1.411506,-4.35708 -4.329429,-7.58097 -7.436079,-8.21582 -7.736601,-1.58099 -12.423336,3.54815 -13.883622,15.19416 -1.571949,12.53654 0.174639,24.39576 4.281872,29.07364 2.947276,3.35676 5.72724,4.21823 9.885445,3.06335 z m 364.669158,3.78589 c -12.44299,-3.3461 -19.95485,-14.30069 -19.98794,-29.1485 -0.028,-12.54987 5.4057,-24.31105 14.79317,-32.01988 6.81636,-5.59747 17.67231,-10.20116 27.56352,-11.68887 l 3.37291,-0.50731 0.62366,2.31611 c 0.34302,1.27387 0.54036,2.38122 0.43853,2.46078 -0.10182,0.0796 -1.76834,0.44771 -3.70338,0.8181 -8.40645,1.60909 -16.59351,7.54724 -20.16781,14.62789 -1.68171,3.33145 -4.52735,12.27187 -4.05602,12.74319 0.11476,0.11476 1.52359,-0.67268 3.13074,-1.74987 4.36795,-2.92761 8.78224,-4.01274 15.16746,-3.72851 4.51196,0.20084 5.81974,0.50001 8.44024,1.93081 3.93175,2.14673 7.41731,5.91698 9.40685,10.17517 1.37492,2.94271 1.5538,4.04019 1.54589,9.48471 -0.0118,8.1367 -1.31425,11.56051 -6.34936,16.69102 -5.91312,6.02515 -12.39358,8.55267 -21.75398,8.48452 -2.91542,-0.0212 -6.72444,-0.42143 -8.46448,-0.88936 z m 11.38355,-4.02287 c 2.57711,-1.07679 5.28422,-5.26251 6.17329,-9.54511 0.97262,-4.68508 0.8335,-13.57997 -0.27186,-17.38228 -1.57421,-5.41507 -5.11677,-8.59442 -9.54774,-8.5688 -2.91472,0.0168 -6.67236,1.75885 -8.35108,3.87148 -1.29419,1.62871 -1.32905,1.97608 -1.0223,10.18865 0.48576,13.00569 2.93305,19.59144 8.03697,21.62784 2.01343,0.80333 2.66071,0.77842 4.98272,-0.19178 z m 111.69391,4.54573 c -7.86606,-1.31676 -15.45686,-6.10822 -18.36006,-11.58924 -1.77047,-3.34252 -1.77146,-10.20426 -0.002,-13.51299 2.32637,-4.34999 6.11721,-7.13212 12.382,-9.08725 l 3.10879,-0.9702 -3.46771,-2.14039 c -3.95576,-2.44151 -7.08083,-5.67192 -9.02118,-9.32503 -1.08784,-2.0481 -1.33902,-3.4495 -1.34474,-7.50271 -0.006,-4.36383 0.18963,-5.31872 1.57305,-7.67192 4.11261,-6.99558 12.41365,-11.28276 23.36064,-12.06492 11.93359,-0.85265 23.23543,4.05372 26.55384,11.52759 1.45578,3.27878 1.49962,8.41565 0.097,11.37139 -1.49834,3.15752 -6.13349,7.0251 -10.27598,8.57429 l -3.59724,1.34528 4.00946,1.87005 c 9.14131,4.26362 13.68464,10.19798 13.68464,17.87446 0,2.14858 -0.42379,5.1503 -0.94177,6.67047 -2.09422,6.14618 -10.38574,12.38379 -18.84413,14.1762 -3.65712,0.77498 -15.32627,1.05563 -18.91487,0.45492 z m 16.43764,-5.53987 c 4.26323,-2.39607 6.61805,-8.35552 5.27396,-13.34708 -1.11244,-4.13129 -3.60086,-6.26694 -12.09433,-10.3798 -4.26103,-2.06335 -8.05073,-3.75155 -8.42155,-3.75155 -0.37082,0 -1.38526,1.51725 -2.25431,3.37166 -1.42882,3.04886 -1.5801,4.01726 -1.5801,10.11497 0,6.30272 0.10551,6.9228 1.6148,9.49028 2.6829,4.56395 6.31181,6.45713 11.68688,6.09699 2.06044,-0.13805 4.26554,-0.7473 5.77465,-1.59547 z m 1.82811,-40.52528 c 0.4353,-1.69316 0.79145,-5.98103 0.79145,-9.5286 0,-5.59967 -0.17707,-6.78174 -1.343,-8.96522 -1.76852,-3.31201 -4.28887,-4.80961 -8.09889,-4.81241 -9.40435,-0.007 -13.44242,12.0986 -6.296,18.87443 1.6938,1.60596 12.25047,7.47849 13.4805,7.49902 0.37096,0.006 1.03063,-1.37406 1.46594,-3.06722 z m 122.00432,45.28656 c -11.40916,-2.98919 -20.20567,-10.90776 -23.89181,-21.50729 -2.55372,-7.34322 -2.88713,-17.2322 -0.83998,-24.91464 1.31894,-4.9498 5.36674,-11.75143 9.39895,-15.79335 4.34147,-4.3519 10.97437,-8.01407 17.55198,-9.69081 7.72573,-1.96943 18.59748,-1.07488 26.11874,2.1491 2.71738,1.16479 2.72189,1.16479 4.36996,-0.009 0.90741,-0.64611 2.55724,-1.17475 3.66637,-1.17475 l 2.0166,0 0.38302,9.23541 c 0.21069,5.07948 0.3839,10.88459 0.38502,12.90026 l 0,3.66484 -2.06487,0 c -1.69908,0 -2.18372,-0.28567 -2.73567,-1.61253 -4.7721,-11.47201 -8.68744,-17.10322 -13.65586,-19.64034 -3.03338,-1.54901 -9.33363,-2.02998 -13.05395,-0.99655 -3.96483,1.10134 -8.89009,6.09651 -10.66804,10.81943 -2.23644,5.94094 -3.05812,11.21008 -3.06252,19.63925 -0.008,15.32522 4.18472,25.48188 12.10097,29.31406 5.4269,2.62712 13.38976,2.61106 18.86205,-0.0381 3.37494,-1.63377 8.49306,-6.34 10.84912,-9.97597 1.02691,-1.58484 2.02059,-2.88054 2.20817,-2.87933 0.18758,0.001 1.20717,0.53028 2.26581,1.17571 2.20178,1.34243 2.20248,1.33936 -1.69087,7.10187 -4.0613,6.01113 -10.6752,10.64958 -17.84956,12.51826 -4.91769,1.28091 -15.22998,1.13827 -20.66557,-0.28583 z M 90.207165,237.71383 c 0,-1.87416 0.189476,-1.95477 6.398241,-2.7223 2.178947,-0.26937 3.602814,-0.82191 4.544414,-1.76351 l 1.37123,-1.37123 0,-17.03154 0,-17.03154 -6.156944,0 -6.156941,0 0,-2.26171 0,-2.26171 4.631656,-0.31746 c 5.810899,-0.39829 10.659089,-2.46806 14.176709,-6.05225 2.53264,-2.58057 2.56591,-2.5935 6.67446,-2.59352 l 4.12913,-1e-5 -0.20997,21.99911 c -0.11548,12.09951 -0.0352,22.93072 0.17841,24.06937 0.46974,2.50393 2.85489,4.15816 6.75578,4.68549 4.3832,0.59253 4.7101,0.77616 4.7101,2.64573 l 0,1.71961 -20.52314,0 -20.523135,0 0,-1.71253 z m 49.841905,-2.93314 0,-4.64565 3.07847,-2.61409 c 3.61381,-3.06868 9.21772,-6.69316 16.5651,-10.71393 6.31034,-3.45326 10.8839,-7.74662 11.89397,-11.16527 2.10251,-7.11607 -0.62392,-14.27305 -6.12943,-16.09004 -2.05008,-0.67658 -8.60926,-0.54305 -9.34251,0.1902 -0.20768,0.20767 0.0864,2.09165 0.65346,4.1866 1.94067,7.16941 0.0997,11.87627 -5.20359,13.3043 -6.03347,1.62465 -10.91717,-1.91642 -10.92523,-7.92164 -0.0136,-10.13179 15.49883,-17.10597 32.10277,-14.43299 12.24586,1.9714 18.30606,7.21578 18.31264,15.84741 0.007,9.5669 -4.67801,13.45298 -21.98007,18.2307 -8.73525,2.41212 -15.59262,5.06074 -16.37346,6.32417 -0.29875,0.48338 5.15524,0.65927 20.44348,0.65927 l 20.85093,0 0,6.74331 0,6.74332 -26.97326,0 -26.97327,0 0,-4.64567 z"
       id="path3006"
       inkscape:connector-curvature="0" />
  </g>
</svg>
