<?xml version="1.0" encoding="UTF-8" standalone="no"?>
<!-- Created with Inkscape (http://www.inkscape.org/) -->

<svg
   xmlns:dc="http://purl.org/dc/elements/1.1/"
   xmlns:cc="http://creativecommons.org/ns#"
   xmlns:rdf="http://www.w3.org/1999/02/22-rdf-syntax-ns#"
   xmlns:svg="http://www.w3.org/2000/svg"
   xmlns="http://www.w3.org/2000/svg"
   xmlns:sodipodi="http://sodipodi.sourceforge.net/DTD/sodipodi-0.dtd"
   xmlns:inkscape="http://www.inkscape.org/namespaces/inkscape"
   width="210mm"
   height="297mm"
   id="svg2"
   version="1.1"
   inkscape:version="0.47 r22583"
   sodipodi:docname="number.4.svg">
  <defs
     id="defs4">
    <inkscape:perspective
       sodipodi:type="inkscape:persp3d"
       inkscape:vp_x="0 : 526.18109 : 1"
       inkscape:vp_y="0 : 1000 : 0"
       inkscape:vp_z="744.09448 : 526.18109 : 1"
       inkscape:persp3d-origin="372.04724 : 350.78739 : 1"
       id="perspective10" />
  </defs>
  <sodipodi:namedview
     id="base"
     pagecolor="#ffffff"
     bordercolor="#666666"
     borderopacity="1.0"
     inkscape:pageopacity="0.0"
     inkscape:pageshadow="2"
     inkscape:zoom="0.74118969"
     inkscape:cx="60.386136"
     inkscape:cy="526.18109"
     inkscape:document-units="px"
     inkscape:current-layer="layer2"
     showgrid="true"
     inkscape:snap-grids="true"
     inkscape:snap-to-guides="true"
     inkscape:window-width="1920"
     inkscape:window-height="1138"
     inkscape:window-x="1272"
     inkscape:window-y="-8"
     inkscape:window-maximized="1">
    <inkscape:grid
       type="xygrid"
       id="grid2822"
       empspacing="5"
       visible="true"
       enabled="true"
       snapvisiblegridlinesonly="true" />
  </sodipodi:namedview>
  <metadata
     id="metadata7">
    <rdf:RDF>
      <cc:Work
         rdf:about="">
        <dc:format>image/svg+xml</dc:format>
        <dc:type
           rdf:resource="http://purl.org/dc/dcmitype/StillImage" />
        <dc:title />
      </cc:Work>
    </rdf:RDF>
  </metadata>
  <g
     inkscape:groupmode="layer"
     id="layer3"
     inkscape:label="C"
     style="display:none">
    <path
       style="fill:none;stroke:#000000;stroke-width:3.60095501px;stroke-linecap:butt;stroke-linejoin:miter;stroke-opacity:1"
       d="m 580,612.36218 c -20,100.00001 -80,180 -180,180 -240,0 -220,-540 -20,-600 80,-20 160,40 100,40 -40,0 -80,40.00001 -80,80 0,40.00001 20,80 80,80 60,0 100,-40 100,-100 0,-80 -80,-140 -180,-140 -200,0 -280,180 -280,340 0,160.78875 60,340.00001 260,340 120,0 200,-59.99999 220,-220 4.96139,-39.69111 -12.17526,-39.12372 -20,0 z"
       id="path2829"
       sodipodi:nodetypes="ccccsssczcss" />
  </g>
  <g
     inkscape:groupmode="layer"
     id="layer2"
     inkscape:label="3"
     style="display:inline">
    <path
       sodipodi:nodetypes="cscscscssssscssss"
       id="path2825"
       d="m 280,592.36218 c 60,0 80,40 80,80 0,40 -40,80 -80,80 0,20 40,40 80,40 180,0 160,-300 -40,-300 200,0 220,-300 40,-300 -40,0 -80,20 -80,40 40,0 80,40.00001 80,80 0,40.00001 -20,80 -80,80 -60,0 -100,-40 -100,-100 0,-80 80,-140 180,-140 100,0 220,40.00001 220,160 0,100 -60,180 -60,180 0,0 60,100 60,200 0,120 -120,140 -220,140 -100,0 -180,-60 -180,-140 0,-60 40,-100 100,-100 z"
       style="fill:none;stroke:#000000;stroke-width:3.60095501px;stroke-linecap:butt;stroke-linejoin:miter;stroke-opacity:1" />
  </g>
  <g
     inkscape:label="4"
     inkscape:groupmode="layer"
     id="layer1"
     style="display:none">
    <path
       style="fill:none;stroke:#000000;stroke-width:3.60095501px;stroke-linecap:butt;stroke-linejoin:miter;stroke-opacity:1"
       d="m 540,832.36218 -260,0 0,-20 c 40,0 60,0 60,-60 l 0,-120 -220,0 c 0,0 200,-300 200,-480 l 160,0 -300,440 160,0 0,-100 140,-200 0,300 100,0 0,40 -100,0 0,120 c 0,60.00001 20,60.00001 60,60 l 0,20 z"
       id="path2820"
       sodipodi:nodetypes="ccccccccccccccccccc" />
  </g>
</svg>
