<?xml version="1.0" encoding="UTF-8" standalone="no"?>
<!-- Created with Inkscape (http://www.inkscape.org/) -->
<svg
   xmlns:dc="http://purl.org/dc/elements/1.1/"
   xmlns:cc="http://creativecommons.org/ns#"
   xmlns:rdf="http://www.w3.org/1999/02/22-rdf-syntax-ns#"
   xmlns:svg="http://www.w3.org/2000/svg"
   xmlns="http://www.w3.org/2000/svg"
   xmlns:sodipodi="http://sodipodi.sourceforge.net/DTD/sodipodi-0.dtd"
   xmlns:inkscape="http://www.inkscape.org/namespaces/inkscape"
   version="1.0"
   width="10.53"
   height="26.700001"
   id="svg2208"
   sodipodi:version="0.32"
   inkscape:version="0.46"
   sodipodi:docname="rest4.svg"
   inkscape:output_extension="org.inkscape.output.svg.inkscape">
  <metadata
     id="metadata2594">
    <rdf:RDF>
      <cc:Work
         rdf:about="">
        <dc:format>image/svg+xml</dc:format>
        <dc:type
           rdf:resource="http://purl.org/dc/dcmitype/StillImage" />
      </cc:Work>
    </rdf:RDF>
  </metadata>
  <sodipodi:namedview
     inkscape:window-height="977"
     inkscape:window-width="1280"
     inkscape:pageshadow="2"
     inkscape:pageopacity="0.0"
     guidetolerance="10.0"
     gridtolerance="10.0"
     objecttolerance="10.0"
     borderopacity="1.0"
     bordercolor="#666666"
     pagecolor="#ffffff"
     id="base"
     showgrid="false"
     inkscape:zoom="28.614231"
     inkscape:cx="5.2649999"
     inkscape:cy="-0.17937484"
     inkscape:window-x="-4"
     inkscape:window-y="-4"
     inkscape:current-layer="svg2208" />
  <defs
     id="defs2210" />
  <path
     sodipodi:nodetypes="cccccccccccccccc"
     id="path2598"
     style="opacity:1;fill:#000000;fill-opacity:1;fill-rule:evenodd;stroke:#000000;stroke-width:0pt;stroke-linecap:butt;stroke-linejoin:round;stroke-miterlimit:10"
     d="M -1.9826943,13.997956 L -0.41759439,15.908431 C 1.1254557,18.000794 0.012263608,20.311906 -1.5071703,21.482394 C -4.5098403,23.925435 -4.6166883,24.565826 -3.5828583,25.795232 L 0.99090566,31.175356 C -0.76548039,30.372698 -3.6744243,29.671848 -4.4084103,30.444331 C -5.7394203,31.910073 -3.0639723,36.946572 -1.4998263,38.768219 C -1.1907123,39.130445 -0.84169239,38.75562 -1.0476843,38.507287 C -2.2423623,36.898456 -2.3225703,33.8717 -1.3721883,33.063299 C -0.46282839,32.259822 2.2827477,32.871595 3.4428837,34.122401 C 3.8412597,34.492776 4.6138737,33.851634 4.2105117,33.358005 L 1.3149057,29.888356 C -0.41451639,27.920618 0.29889561,25.36051 1.9802217,24.002131 C 3.4938057,22.744413 5.5657137,21.325173 4.4361057,19.918156 L -1.2302943,13.245556 C -1.8708063,13.119009 -2.1254883,13.632 -1.9826943,13.997956 z" />
</svg>
